<?xml version="1.0" standalone="no"?>
<!DOCTYPE svg PUBLIC "-//W3C//DTD SVG 20010904//EN"
 "http://www.w3.org/TR/2001/REC-SVG-20010904/DTD/svg10.dtd">
<svg version="1.0" xmlns="http://www.w3.org/2000/svg"
 width="16.000000pt" height="16.000000pt" viewBox="0 0 16.000000 16.000000"
 preserveAspectRatio="xMidYMid meet">
<metadata>
Created by potrace 1.11, written by Peter Selinger 2001-2013
</metadata>
<g transform="translate(0.000000,16.000000) scale(0.003187,-0.003187)"
fill="#000000" stroke="none">
<path d="M2435 4907 c-33 -61 -151 -260 -262 -441 -112 -181 -203 -332 -203
-334 0 -12 -57 -52 -82 -58 -56 -12 -188 21 -411 101 -84 31 -159 57 -167 60
-8 2 -53 18 -100 35 -47 17 -109 39 -138 50 l-52 18 6 -26 c3 -15 8 -35 11
-44 2 -10 7 -30 9 -45 3 -16 14 -68 25 -116 10 -48 22 -105 25 -125 3 -20 8
-41 11 -46 11 -16 1 -345 -12 -412 -2 -10 -4 -25 -4 -31 -1 -20 -67 -48 -206
-86 -132 -37 -395 -101 -456 -112 -19 -3 -63 -13 -99 -21 -36 -8 -81 -17 -100
-20 -64 -10 -210 -41 -215 -46 -3 -3 16 -25 179 -202 50 -54 98 -107 106 -116
137 -156 513 -540 530 -540 6 0 -27 -30 -72 -67 -46 -37 -102 -85 -126 -107
-23 -22 -49 -44 -56 -48 -8 -4 -27 -32 -44 -60 -49 -88 -150 -218 -240 -310
-47 -49 -83 -90 -81 -93 3 -2 49 -7 102 -10 84 -4 121 -13 279 -66 101 -34
188 -64 193 -68 6 -4 63 -25 128 -46 114 -39 118 -41 111 -65 -11 -44 -25
-129 -31 -180 -5 -51 -9 -840 -4 -840 18 0 420 131 476 155 17 7 73 31 125 54
136 58 347 164 400 199 25 17 47 28 50 24 3 -4 21 -43 40 -87 53 -122 111
-227 246 -440 49 -78 105 -173 124 -213 19 -39 38 -72 42 -72 4 0 39 64 78
143 77 153 81 159 124 227 39 59 101 196 160 348 26 67 51 122 54 122 4 -1 36
-23 72 -50 71 -54 201 -121 435 -223 180 -78 454 -190 510 -207 22 -7 45 -15
50 -19 16 -9 47 -12 42 -4 -38 74 -48 110 -46 172 8 219 -1 577 -15 600 -4 5
-9 77 -19 280 l-2 33 105 39 c58 21 109 39 113 39 5 0 23 6 40 14 26 11 135
49 182 63 77 22 237 64 260 68 43 8 98 26 109 36 5 4 -12 26 -40 51 -145 125
-155 141 -204 338 -12 46 -35 118 -52 160 -17 41 -31 80 -32 85 -1 6 -12 25
-24 42 -12 17 -22 34 -22 37 0 11 -59 92 -84 115 l-25 24 82 77 c45 43 105 99
132 125 28 26 81 75 119 108 38 34 91 82 117 107 26 25 69 64 96 87 104 90
195 175 191 178 -4 4 -44 12 -103 21 -47 7 -60 9 -184 29 -51 9 -108 17 -125
20 -17 2 -51 8 -76 14 -25 5 -67 12 -93 16 -27 3 -148 30 -270 60 -122 31
-232 58 -244 60 -13 3 -22 9 -21 13 1 4 -2 34 -6 67 -21 167 -29 279 -30 420
0 113 7 225 18 270 22 100 36 179 31 183 -3 3 -35 -24 -72 -60 -38 -36 -79
-71 -93 -78 -24 -13 -239 -88 -271 -95 -9 -2 -47 -12 -85 -23 -88 -26 -228
-59 -276 -66 -41 -6 -84 8 -93 32 -3 8 -65 112 -139 231 -73 119 -152 249
-175 289 -39 68 -184 353 -192 379 -2 6 -31 -39 -64 -100z"/>
</g>
</svg>
